<mxfile host="app.diagrams.net" agent="Mozilla/5.0 (Windows NT 10.0; Win64; x64) AppleWebKit/537.36 (KHTML, like Gecko) Chrome/140.0.0.0 Safari/537.36" version="28.2.7">
  <diagram name="Page-1" id="Vci4cz65aGgilZb8KiTq">
    <mxGraphModel dx="863" dy="472" grid="1" gridSize="10" guides="1" tooltips="1" connect="1" arrows="1" fold="1" page="1" pageScale="1" pageWidth="850" pageHeight="1100" math="0" shadow="0">
      <root>
        <mxCell id="0" />
        <mxCell id="1" parent="0" />
        <mxCell id="kp4AS8SvUtgopGcJDHl2-4" value="" style="rounded=0;whiteSpace=wrap;html=1;fillColor=none;strokeColor=none;movable=0;resizable=0;rotatable=0;deletable=0;editable=0;locked=1;connectable=0;" parent="1" vertex="1">
          <mxGeometry x="120" y="80" width="490" height="420" as="geometry" />
        </mxCell>
        <mxCell id="kp4AS8SvUtgopGcJDHl2-1" value="" style="rounded=0;whiteSpace=wrap;html=1;fillColor=#60a917;fontColor=#ffffff;strokeColor=#2D7600;" parent="1" vertex="1">
          <mxGeometry x="180" y="150" width="370" height="290" as="geometry" />
        </mxCell>
        <mxCell id="kp4AS8SvUtgopGcJDHl2-2" value="The Outside" style="text;html=1;align=center;verticalAlign=middle;resizable=0;points=[];autosize=1;strokeColor=none;fillColor=none;" parent="1" vertex="1">
          <mxGeometry x="170" y="120" width="90" height="30" as="geometry" />
        </mxCell>
        <mxCell id="kp4AS8SvUtgopGcJDHl2-5" value="&lt;font style=&quot;font-size: 17px;&quot;&gt;Wrapper&lt;/font&gt;" style="text;html=1;align=center;verticalAlign=middle;resizable=0;points=[];autosize=1;strokeColor=none;fillColor=none;" parent="1" vertex="1">
          <mxGeometry x="185" y="150" width="90" height="30" as="geometry" />
        </mxCell>
        <mxCell id="kp4AS8SvUtgopGcJDHl2-19" style="edgeStyle=orthogonalEdgeStyle;rounded=0;orthogonalLoop=1;jettySize=auto;html=1;entryX=0.5;entryY=0;entryDx=0;entryDy=0;startArrow=diamondThin;startFill=0;strokeWidth=1;" parent="1" source="kp4AS8SvUtgopGcJDHl2-6" target="kp4AS8SvUtgopGcJDHl2-15" edge="1">
          <mxGeometry relative="1" as="geometry" />
        </mxCell>
        <mxCell id="kp4AS8SvUtgopGcJDHl2-6" value="&lt;div&gt;Real&lt;/div&gt;&lt;div&gt;Scheduler&lt;/div&gt;" style="rounded=0;whiteSpace=wrap;html=1;" parent="1" vertex="1">
          <mxGeometry x="200" y="180" width="120" height="60" as="geometry" />
        </mxCell>
        <mxCell id="kp4AS8SvUtgopGcJDHl2-16" style="edgeStyle=orthogonalEdgeStyle;rounded=0;orthogonalLoop=1;jettySize=auto;html=1;entryX=1;entryY=0.5;entryDx=0;entryDy=0;" parent="1" source="kp4AS8SvUtgopGcJDHl2-7" target="kp4AS8SvUtgopGcJDHl2-15" edge="1">
          <mxGeometry relative="1" as="geometry" />
        </mxCell>
        <mxCell id="kp4AS8SvUtgopGcJDHl2-7" value="&lt;div&gt;FIFO&lt;/div&gt;&lt;div&gt;Scheduler&lt;/div&gt;" style="rounded=0;whiteSpace=wrap;html=1;" parent="1" vertex="1">
          <mxGeometry x="380" y="210" width="120" height="60" as="geometry" />
        </mxCell>
        <mxCell id="kp4AS8SvUtgopGcJDHl2-17" style="edgeStyle=orthogonalEdgeStyle;rounded=0;orthogonalLoop=1;jettySize=auto;html=1;entryX=1;entryY=0.5;entryDx=0;entryDy=0;" parent="1" source="kp4AS8SvUtgopGcJDHl2-8" target="kp4AS8SvUtgopGcJDHl2-15" edge="1">
          <mxGeometry relative="1" as="geometry" />
        </mxCell>
        <mxCell id="kp4AS8SvUtgopGcJDHl2-8" value="&lt;div&gt;Capacity&lt;/div&gt;&lt;div&gt;Scheduler&lt;/div&gt;" style="rounded=0;whiteSpace=wrap;html=1;" parent="1" vertex="1">
          <mxGeometry x="380" y="280" width="120" height="60" as="geometry" />
        </mxCell>
        <mxCell id="kp4AS8SvUtgopGcJDHl2-18" style="edgeStyle=orthogonalEdgeStyle;rounded=0;orthogonalLoop=1;jettySize=auto;html=1;entryX=1;entryY=0.5;entryDx=0;entryDy=0;" parent="1" source="kp4AS8SvUtgopGcJDHl2-9" target="kp4AS8SvUtgopGcJDHl2-15" edge="1">
          <mxGeometry relative="1" as="geometry" />
        </mxCell>
        <mxCell id="kp4AS8SvUtgopGcJDHl2-9" value="&lt;div&gt;Fair&lt;/div&gt;&lt;div&gt;Scheduler&lt;/div&gt;" style="rounded=0;whiteSpace=wrap;html=1;" parent="1" vertex="1">
          <mxGeometry x="380" y="350" width="120" height="60" as="geometry" />
        </mxCell>
        <mxCell id="kp4AS8SvUtgopGcJDHl2-15" value="&lt;div&gt;Implemented&amp;nbsp;&lt;/div&gt;&lt;div&gt;Schedule&lt;/div&gt;" style="rounded=0;whiteSpace=wrap;html=1;" parent="1" vertex="1">
          <mxGeometry x="200" y="280" width="120" height="60" as="geometry" />
        </mxCell>
        <mxCell id="kp4AS8SvUtgopGcJDHl2-20" value="Contains" style="text;html=1;align=center;verticalAlign=middle;resizable=0;points=[];autosize=1;strokeColor=none;fillColor=none;" parent="1" vertex="1">
          <mxGeometry x="195" y="250" width="70" height="30" as="geometry" />
        </mxCell>
        <mxCell id="kp4AS8SvUtgopGcJDHl2-21" value="&lt;font style=&quot;font-size: 10px;&quot;&gt;Most likely not a real class&lt;/font&gt;" style="text;html=1;align=center;verticalAlign=middle;resizable=0;points=[];autosize=1;strokeColor=none;fillColor=none;" parent="1" vertex="1">
          <mxGeometry x="190" y="340" width="140" height="30" as="geometry" />
        </mxCell>
      </root>
    </mxGraphModel>
  </diagram>
</mxfile>
